<svg width="1335" height="1509" viewBox="0 0 1335 1509" fill="none" xmlns="http://www.w3.org/2000/svg">
<path d="M842.223 677.538C759.851 718.242 715.442 858.354 748.524 929.984C785.074 1009.08 1013.62 997.069 1039.84 977.782C1066.07 958.494 851.675 896.774 880.93 823.991C913.421 743.205 1076.57 743.094 1072.13 708.598C1067.76 674.656 937.436 630.494 842.223 677.538Z" stroke="#F5F5DC" stroke-width="5" stroke-miterlimit="10"/>
<path d="M816.435 667.584C719.886 703.056 677.994 872.653 720.554 952.553C768.79 1043.05 1017.08 1009.51 1053.94 995.185C1085.71 982.858 879.466 899.855 904.123 811.908C930.887 716.357 1078.03 700.839 1067.04 678.669C1055.23 654.903 929.731 626.06 816.435 667.584Z" stroke="#F5F5DC" stroke-width="5" stroke-miterlimit="10"/>
<path d="M790.649 657.653C680.076 687.782 640.624 886.932 692.585 975.1C752.61 1077.08 1018.58 1021.66 1068.05 1012.61C1104 1005.96 907.438 903.049 927.292 799.783C948.482 689.644 1082.81 657.343 1061.96 648.896C1046.39 633.932 922.438 621.716 790.649 657.653Z" stroke="#F5F5DC" stroke-width="5" stroke-miterlimit="10"/>
<path d="M764.861 647.633C640.341 672.64 603.329 901.12 664.69 997.602C736.608 1110.84 1023.58 1049.81 1082.22 1029.97C1118.95 1017.53 935.588 906.197 950.537 787.678C966.281 662.952 1086 614.445 1056.95 619.034C1035.71 613.558 915.117 617.504 764.861 647.633Z" stroke="#F5F5DC" stroke-width="5" stroke-miterlimit="10"/>
<path d="M739.071 637.745C600.656 657.698 566.084 915.397 636.64 1020.24C720.476 1144.83 1021.91 1063.2 1096.24 1047.44C1137.96 1038.57 963.66 909.5 973.651 775.662C983.925 636.348 1091.8 577.222 1051.78 589.26C1026.15 596.953 907.846 613.403 739.071 637.745Z" stroke="#F5F5DC" stroke-width="5" stroke-miterlimit="10"/>
<path d="M713.313 627.79C560.976 642.799 528.87 929.63 608.673 1042.78C704.503 1178.71 1020.71 1052.85 1110.37 1064.95C1156.84 1071.18 991.916 912.825 996.847 763.646C1001.98 609.789 1095.73 533.281 1046.7 559.53C1016.19 575.758 900.606 609.367 713.313 627.79Z" stroke="#F5F5DC" stroke-width="5" stroke-miterlimit="10"/>
<path d="M687.526 617.859C521.294 627.924 491.68 943.753 580.678 1065.35C688.554 1212.56 1021.81 1061.98 1124.45 1082.27C1174.66 1092.2 1020.14 915.996 1019.99 751.475C1019.84 582.986 1098.84 489.43 1041.59 529.602C1005.68 554.808 893.364 605.377 687.526 617.859Z" stroke="#F5F5DC" stroke-width="5" stroke-miterlimit="10"/>
<path d="M661.734 607.904C481.607 613.092 454.56 958.007 552.702 1087.92C672.547 1246.41 1023.2 1070.78 1138.55 1099.69C1192.64 1113.24 1048.44 919.188 1043.18 739.393C1037.81 556.36 1101.74 445.933 1036.5 499.783C994.995 534.013 886.065 601.453 661.734 607.904Z" stroke="#F5F5DC" stroke-width="5" stroke-miterlimit="10"/>
<path d="M635.949 597.95C441.926 598.282 417.32 972.195 524.733 1110.49C656.599 1280.26 1024.82 1079.45 1152.65 1117.14C1210.75 1134.28 1076.78 922.447 1066.35 727.332C1055.79 529.712 1104.59 402.635 1031.42 469.965C984.209 513.351 878.85 597.551 635.949 597.95Z" stroke="#F5F5DC" stroke-width="5" stroke-miterlimit="10"/>
<path d="M610.16 588.018C402.113 583.584 380.153 986.362 496.762 1133.04C640.597 1314.07 1026.64 1087.88 1166.75 1134.52C1228.96 1155.23 1105.11 925.64 1089.52 715.228C1073.8 503.02 1107.5 359.383 1026.31 440.103C973.395 492.755 871.58 593.694 610.16 588.018Z" stroke="#F5F5DC" stroke-width="5" stroke-miterlimit="10"/>
<path d="M584.373 578.064C362.508 568.731 342.936 1000.53 468.791 1155.61C624.75 1347.9 1028.72 1096.28 1180.85 1151.95C1247.25 1176.2 1133.49 928.854 1112.71 703.145C1091.83 476.328 1110.3 316.241 1021.22 410.284C962.556 472.204 864.286 589.858 584.373 578.064Z" stroke="#F5F5DC" stroke-width="5" stroke-miterlimit="10"/>
<path d="M558.585 568.109C322.798 553.965 305.872 1014.69 440.82 1178.17C608.85 1381.71 1030.7 1104.61 1194.95 1169.31C1265.56 1197.15 1161.84 932.09 1135.88 690.996C1109.86 449.59 1113.15 273.076 1016.13 380.399C951.742 451.674 856.991 586.022 558.585 568.109Z" stroke="#F5F5DC" stroke-width="5" stroke-miterlimit="10"/>
<path d="M532.8 558.178C283.067 539.223 268.734 1028.95 412.852 1200.72C592.954 1415.52 1032.88 1112.93 1209.08 1186.78C1283.98 1218.17 1190.25 935.261 1159.07 678.958C1127.89 422.655 1116 230.045 1011.05 350.559C940.906 431.168 849.699 582.232 532.8 558.178Z" stroke="#F5F5DC" stroke-width="5" stroke-miterlimit="10"/>
<path d="M507.013 548.223C243.333 524.48 231.595 1043.01 384.856 1223.29C577.056 1449.42 1035.17 1121.31 1223.16 1204.2C1302.39 1239.16 1218.64 938.453 1182.24 666.875C1145.95 396.251 1118.88 187.014 1005.94 320.785C930.068 410.683 842.406 578.418 507.013 548.223Z" stroke="#F5F5DC" stroke-width="5" stroke-miterlimit="10"/>
<path d="M481.221 538.269C203.594 509.737 194.861 1056.91 356.958 1245.86C561.743 1482.81 1037.61 1129.47 1237.33 1221.6C1320.91 1260.16 1247.12 941.646 1205.48 654.793C1164.08 369.559 1121.83 143.96 1000.93 290.945C919.224 390.198 835.055 574.65 481.221 538.269Z" stroke="#F5F5DC" stroke-width="5" stroke-miterlimit="10"/>
<path d="M455.436 528.337C163.862 495.017 157.698 1071.07 328.913 1268.38C545.719 1516.68 1039.89 1137.58 1251.36 1238.98C1339.33 1281.11 1275.45 944.794 1228.58 642.622C1182.09 342.755 1124.63 100.863 995.768 261.016C908.388 369.714 827.738 570.859 455.436 528.337Z" stroke="#F5F5DC" stroke-width="5" stroke-miterlimit="10"/>
<path d="M429.649 518.383C124 480.296 120.507 1085.26 300.942 1290.97C529.768 1550.36 1042.31 1145.96 1265.46 1256.43C1357.92 1302.17 1304.47 947.964 1251.74 630.606C1200.76 316.063 1127.51 57.9198 990.682 231.286C897.549 349.251 820.392 567.09 429.649 518.383Z" stroke="#F5F5DC" stroke-width="5" stroke-miterlimit="10"/>
<path d="M403.863 508.43C84.2669 466.063 83.3166 1099.45 272.973 1313.54C513.82 1584.32 1044.78 1154.21 1279.59 1273.86C1376.34 1323.16 1332.75 951.157 1274.94 618.524C1218.71 289.371 1130.38 14.9335 985.573 201.447C886.712 328.789 812.945 563.942 403.863 508.43Z" stroke="#F5F5DC" stroke-width="5" stroke-miterlimit="10"/>
<path d="M378.071 498.497C44.5279 451.232 46.1717 1113.62 244.998 1336.11C497.839 1618.15 1047.26 1162.43 1293.68 1291.28C1394.86 1344.18 1361.05 954.305 1298.1 606.441C1236.66 262.679 1133.28 -28.0758 980.482 171.628C875.791 308.437 805.62 560.04 378.071 498.497Z" stroke="#F5F5DC" stroke-width="5" stroke-miterlimit="10"/>
<path d="M352.284 488.543C4.79455 436.4 8.95548 1127.8 217.028 1358.66C481.89 1651.92 1049.81 1170.68 1307.79 1308.69C1413.4 1365.2 1389.49 957.564 1321.27 594.425C1254.49 236.053 1135.75 -71.2399 975.398 141.855C864.722 287.709 798.301 556.116 352.284 488.543Z" stroke="#F5F5DC" stroke-width="5" stroke-miterlimit="10"/>
<path d="M326.5 478.589C-34.9368 421.502 -28.3101 1142.02 189.06 1381.23C465.943 1685.81 1052.35 1178.93 1321.89 1326.02C1431.97 1386.15 1417.67 960.667 1344.47 582.187C1272.57 209.272 1138.86 -114.161 970.315 111.947C854.04 267.357 791.035 552.303 326.5 478.589Z" stroke="#F5F5DC" stroke-width="5" stroke-miterlimit="10"/>
<path d="M965.202 82.1291C843.354 246.982 783.637 548.29 300.711 468.657C-74.6986 406.737 -65.4264 1156.16 161.062 1403.79C449.991 1719.67 1054.89 1187.17 1335.99 1343.51C1563.3 1469.97 1321.53 -399.994 965.202 82.1291Z" stroke="#F5F5DC" stroke-width="5" stroke-miterlimit="10"/>
</svg>
